<?xml version="1.0" encoding="UTF-8" standalone="no"?><svg xmlns="http://www.w3.org/2000/svg" xmlns:xlink="http://www.w3.org/1999/xlink" contentScriptType="application/ecmascript" contentStyleType="text/css" height="304px" preserveAspectRatio="none" style="width:764px;height:304px;" version="1.1" viewBox="0 0 764 304" width="764px" zoomAndPan="magnify"><defs><filter height="300%" id="f1d1n7f4bhg94h" width="300%" x="-1" y="-1"><feGaussianBlur result="blurOut" stdDeviation="2.0"/><feColorMatrix in="blurOut" result="blurOut2" type="matrix" values="0 0 0 0 0 0 0 0 0 0 0 0 0 0 0 0 0 0 .4 0"/><feOffset dx="4.0" dy="4.0" in="blurOut2" result="blurOut3"/><feBlend in="SourceGraphic" in2="blurOut3" mode="normal"/></filter></defs><g><!--cluster de.fhro.inf.prg3.a09.model--><polygon fill="#FFFFFF" filter="url(#f1d1n7f4bhg94h)" points="14,16,232,16,239,38.2969,742,38.2969,742,292,14,292,14,16" style="stroke: #000000; stroke-width: 2.0;"/><line style="stroke: #000000; stroke-width: 2.0;" x1="14" x2="239" y1="38.2969" y2="38.2969"/><text fill="#000000" font-family="sans-serif" font-size="14" font-weight="bold" lengthAdjust="spacingAndGlyphs" textLength="212" x="18" y="30.9951">de.fhro.inf.prg3.a09.model</text><!--cluster empire--><polygon fill="#FFFFFF" filter="url(#f1d1n7f4bhg94h)" points="22,201,83,201,90,223.2969,420,223.2969,420,284,22,284,22,201" style="stroke: #000000; stroke-width: 2.0;"/><line style="stroke: #000000; stroke-width: 2.0;" x1="22" x2="90" y1="223.2969" y2="223.2969"/><text fill="#000000" font-family="sans-serif" font-size="14" font-weight="bold" lengthAdjust="spacingAndGlyphs" textLength="55" x="26" y="215.9951">empire</text><!--cluster rebellion--><polygon fill="#FFFFFF" filter="url(#f1d1n7f4bhg94h)" points="439,201,514,201,521,223.2969,734,223.2969,734,284,439,284,439,201" style="stroke: #000000; stroke-width: 2.0;"/><line style="stroke: #000000; stroke-width: 2.0;" x1="439" x2="521" y1="223.2969" y2="223.2969"/><text fill="#000000" font-family="sans-serif" font-size="14" font-weight="bold" lengthAdjust="spacingAndGlyphs" textLength="69" x="443" y="215.9951">rebellion</text><!--class Fighter--><rect fill="#FEFECE" filter="url(#f1d1n7f4bhg94h)" height="124.8281" id="Fighter" style="stroke: #A80036; stroke-width: 1.5;" width="280" x="282" y="43"/><ellipse cx="395.75" cy="59" fill="#ADD1B2" rx="11" ry="11" style="stroke: #A80036; stroke-width: 1.0;"/><path d="M398.7188,64.6406 Q398.1406,64.9375 397.5,65.0859 Q396.8594,65.2344 396.1563,65.2344 Q393.6563,65.2344 392.3359,63.5859 Q391.0156,61.9375 391.0156,58.8125 Q391.0156,55.6875 392.3359,54.0313 Q393.6563,52.375 396.1563,52.375 Q396.8594,52.375 397.5078,52.5313 Q398.1563,52.6875 398.7188,52.9844 L398.7188,55.7031 Q398.0938,55.125 397.5,54.8516 Q396.9063,54.5781 396.2813,54.5781 Q394.9375,54.5781 394.25,55.6484 Q393.5625,56.7188 393.5625,58.8125 Q393.5625,60.9063 394.25,61.9766 Q394.9375,63.0469 396.2813,63.0469 Q396.9063,63.0469 397.5,62.7734 Q398.0938,62.5 398.7188,61.9219 L398.7188,64.6406 Z "/><text fill="#000000" font-family="sans-serif" font-size="12" lengthAdjust="spacingAndGlyphs" textLength="44" x="416.25" y="63.1543">Fighter</text><line style="stroke: #A80036; stroke-width: 1.5;" x1="283" x2="561" y1="75" y2="75"/><rect fill="none" height="6" style="stroke: #C82930; stroke-width: 1.0;" width="6" x="290" y="83.9023"/><text fill="#000000" font-family="sans-serif" font-size="11" lengthAdjust="spacingAndGlyphs" textLength="66" x="302" y="89.2104">pilot: String</text><rect fill="none" height="6" style="stroke: #C82930; stroke-width: 1.0;" width="6" x="290" y="96.707"/><text fill="#000000" font-family="sans-serif" font-size="11" lengthAdjust="spacingAndGlyphs" textLength="133" x="302" y="102.0151">fighterImage: Drawable</text><line style="stroke: #A80036; stroke-width: 1.5;" x1="283" x2="561" y1="108.6094" y2="108.6094"/><ellipse cx="293" cy="120.5117" fill="#84BE84" rx="3" ry="3" style="stroke: #038048; stroke-width: 1.0;"/><text fill="#000000" font-family="sans-serif" font-size="11" lengthAdjust="spacingAndGlyphs" textLength="254" x="302" y="122.8198">Fighter(pilot: String, fighterImage: Drawable)</text><ellipse cx="293" cy="133.3164" fill="#84BE84" rx="3" ry="3" style="stroke: #038048; stroke-width: 1.0;"/><text fill="#000000" font-family="sans-serif" font-size="11" font-style="italic" lengthAdjust="spacingAndGlyphs" textLength="134" x="302" y="135.6245">getFighterType(): String</text><ellipse cx="293" cy="146.1211" fill="#84BE84" rx="3" ry="3" style="stroke: #038048; stroke-width: 1.0;"/><text fill="#000000" font-family="sans-serif" font-size="11" lengthAdjust="spacingAndGlyphs" textLength="92" x="302" y="148.4292">getPilot(): String</text><ellipse cx="293" cy="158.9258" fill="#84BE84" rx="3" ry="3" style="stroke: #038048; stroke-width: 1.0;"/><text fill="#000000" font-family="sans-serif" font-size="11" lengthAdjust="spacingAndGlyphs" textLength="161" x="302" y="161.2339">getFighterImage(): Drawable</text><!--class TieBomber--><rect fill="#FEFECE" filter="url(#f1d1n7f4bhg94h)" height="48" id="TieBomber" style="stroke: #A80036; stroke-width: 1.5;" width="98" x="314" y="228"/><ellipse cx="329" cy="244" fill="#ADD1B2" rx="11" ry="11" style="stroke: #A80036; stroke-width: 1.0;"/><path d="M331.9688,249.6406 Q331.3906,249.9375 330.75,250.0859 Q330.1094,250.2344 329.4063,250.2344 Q326.9063,250.2344 325.5859,248.5859 Q324.2656,246.9375 324.2656,243.8125 Q324.2656,240.6875 325.5859,239.0313 Q326.9063,237.375 329.4063,237.375 Q330.1094,237.375 330.7578,237.5313 Q331.4063,237.6875 331.9688,237.9844 L331.9688,240.7031 Q331.3438,240.125 330.75,239.8516 Q330.1563,239.5781 329.5313,239.5781 Q328.1875,239.5781 327.5,240.6484 Q326.8125,241.7188 326.8125,243.8125 Q326.8125,245.9063 327.5,246.9766 Q328.1875,248.0469 329.5313,248.0469 Q330.1563,248.0469 330.75,247.7734 Q331.3438,247.5 331.9688,246.9219 L331.9688,249.6406 Z "/><text fill="#000000" font-family="sans-serif" font-size="12" lengthAdjust="spacingAndGlyphs" textLength="66" x="343" y="248.1543">TieBomber</text><line style="stroke: #A80036; stroke-width: 1.5;" x1="315" x2="411" y1="260" y2="260"/><line style="stroke: #A80036; stroke-width: 1.5;" x1="315" x2="411" y1="268" y2="268"/><!--class TieFighter--><rect fill="#FEFECE" filter="url(#f1d1n7f4bhg94h)" height="48" id="TieFighter" style="stroke: #A80036; stroke-width: 1.5;" width="94" x="185" y="228"/><ellipse cx="200" cy="244" fill="#ADD1B2" rx="11" ry="11" style="stroke: #A80036; stroke-width: 1.0;"/><path d="M202.9688,249.6406 Q202.3906,249.9375 201.75,250.0859 Q201.1094,250.2344 200.4063,250.2344 Q197.9063,250.2344 196.5859,248.5859 Q195.2656,246.9375 195.2656,243.8125 Q195.2656,240.6875 196.5859,239.0313 Q197.9063,237.375 200.4063,237.375 Q201.1094,237.375 201.7578,237.5313 Q202.4063,237.6875 202.9688,237.9844 L202.9688,240.7031 Q202.3438,240.125 201.75,239.8516 Q201.1563,239.5781 200.5313,239.5781 Q199.1875,239.5781 198.5,240.6484 Q197.8125,241.7188 197.8125,243.8125 Q197.8125,245.9063 198.5,246.9766 Q199.1875,248.0469 200.5313,248.0469 Q201.1563,248.0469 201.75,247.7734 Q202.3438,247.5 202.9688,246.9219 L202.9688,249.6406 Z "/><text fill="#000000" font-family="sans-serif" font-size="12" lengthAdjust="spacingAndGlyphs" textLength="62" x="214" y="248.1543">TieFighter</text><line style="stroke: #A80036; stroke-width: 1.5;" x1="186" x2="278" y1="260" y2="260"/><line style="stroke: #A80036; stroke-width: 1.5;" x1="186" x2="278" y1="268" y2="268"/><!--class TieInterceptor--><rect fill="#FEFECE" filter="url(#f1d1n7f4bhg94h)" height="48" id="TieInterceptor" style="stroke: #A80036; stroke-width: 1.5;" width="120" x="30" y="228"/><ellipse cx="45" cy="244" fill="#ADD1B2" rx="11" ry="11" style="stroke: #A80036; stroke-width: 1.0;"/><path d="M47.9688,249.6406 Q47.3906,249.9375 46.75,250.0859 Q46.1094,250.2344 45.4063,250.2344 Q42.9063,250.2344 41.5859,248.5859 Q40.2656,246.9375 40.2656,243.8125 Q40.2656,240.6875 41.5859,239.0313 Q42.9063,237.375 45.4063,237.375 Q46.1094,237.375 46.7578,237.5313 Q47.4063,237.6875 47.9688,237.9844 L47.9688,240.7031 Q47.3438,240.125 46.75,239.8516 Q46.1563,239.5781 45.5313,239.5781 Q44.1875,239.5781 43.5,240.6484 Q42.8125,241.7188 42.8125,243.8125 Q42.8125,245.9063 43.5,246.9766 Q44.1875,248.0469 45.5313,248.0469 Q46.1563,248.0469 46.75,247.7734 Q47.3438,247.5 47.9688,246.9219 L47.9688,249.6406 Z "/><text fill="#000000" font-family="sans-serif" font-size="12" lengthAdjust="spacingAndGlyphs" textLength="88" x="59" y="248.1543">TieInterceptor</text><line style="stroke: #A80036; stroke-width: 1.5;" x1="31" x2="149" y1="260" y2="260"/><line style="stroke: #A80036; stroke-width: 1.5;" x1="31" x2="149" y1="268" y2="268"/><!--class AWing--><rect fill="#FEFECE" filter="url(#f1d1n7f4bhg94h)" height="48" id="AWing" style="stroke: #A80036; stroke-width: 1.5;" width="70" x="656" y="228"/><ellipse cx="671" cy="244" fill="#ADD1B2" rx="11" ry="11" style="stroke: #A80036; stroke-width: 1.0;"/><path d="M673.9688,249.6406 Q673.3906,249.9375 672.75,250.0859 Q672.1094,250.2344 671.4063,250.2344 Q668.9063,250.2344 667.5859,248.5859 Q666.2656,246.9375 666.2656,243.8125 Q666.2656,240.6875 667.5859,239.0313 Q668.9063,237.375 671.4063,237.375 Q672.1094,237.375 672.7578,237.5313 Q673.4063,237.6875 673.9688,237.9844 L673.9688,240.7031 Q673.3438,240.125 672.75,239.8516 Q672.1563,239.5781 671.5313,239.5781 Q670.1875,239.5781 669.5,240.6484 Q668.8125,241.7188 668.8125,243.8125 Q668.8125,245.9063 669.5,246.9766 Q670.1875,248.0469 671.5313,248.0469 Q672.1563,248.0469 672.75,247.7734 Q673.3438,247.5 673.9688,246.9219 L673.9688,249.6406 Z "/><text fill="#000000" font-family="sans-serif" font-size="12" lengthAdjust="spacingAndGlyphs" textLength="38" x="685" y="248.1543">AWing</text><line style="stroke: #A80036; stroke-width: 1.5;" x1="657" x2="725" y1="260" y2="260"/><line style="stroke: #A80036; stroke-width: 1.5;" x1="657" x2="725" y1="268" y2="268"/><!--class XWing--><rect fill="#FEFECE" filter="url(#f1d1n7f4bhg94h)" height="48" id="XWing" style="stroke: #A80036; stroke-width: 1.5;" width="69" x="551.5" y="228"/><ellipse cx="566.5" cy="244" fill="#ADD1B2" rx="11" ry="11" style="stroke: #A80036; stroke-width: 1.0;"/><path d="M569.4688,249.6406 Q568.8906,249.9375 568.25,250.0859 Q567.6094,250.2344 566.9063,250.2344 Q564.4063,250.2344 563.0859,248.5859 Q561.7656,246.9375 561.7656,243.8125 Q561.7656,240.6875 563.0859,239.0313 Q564.4063,237.375 566.9063,237.375 Q567.6094,237.375 568.2578,237.5313 Q568.9063,237.6875 569.4688,237.9844 L569.4688,240.7031 Q568.8438,240.125 568.25,239.8516 Q567.6563,239.5781 567.0313,239.5781 Q565.6875,239.5781 565,240.6484 Q564.3125,241.7188 564.3125,243.8125 Q564.3125,245.9063 565,246.9766 Q565.6875,248.0469 567.0313,248.0469 Q567.6563,248.0469 568.25,247.7734 Q568.8438,247.5 569.4688,246.9219 L569.4688,249.6406 Z "/><text fill="#000000" font-family="sans-serif" font-size="12" lengthAdjust="spacingAndGlyphs" textLength="37" x="580.5" y="248.1543">XWing</text><line style="stroke: #A80036; stroke-width: 1.5;" x1="552.5" x2="619.5" y1="260" y2="260"/><line style="stroke: #A80036; stroke-width: 1.5;" x1="552.5" x2="619.5" y1="268" y2="268"/><!--class YWing--><rect fill="#FEFECE" filter="url(#f1d1n7f4bhg94h)" height="48" id="YWing" style="stroke: #A80036; stroke-width: 1.5;" width="69" x="447.5" y="228"/><ellipse cx="462.5" cy="244" fill="#ADD1B2" rx="11" ry="11" style="stroke: #A80036; stroke-width: 1.0;"/><path d="M465.4688,249.6406 Q464.8906,249.9375 464.25,250.0859 Q463.6094,250.2344 462.9063,250.2344 Q460.4063,250.2344 459.0859,248.5859 Q457.7656,246.9375 457.7656,243.8125 Q457.7656,240.6875 459.0859,239.0313 Q460.4063,237.375 462.9063,237.375 Q463.6094,237.375 464.2578,237.5313 Q464.9063,237.6875 465.4688,237.9844 L465.4688,240.7031 Q464.8438,240.125 464.25,239.8516 Q463.6563,239.5781 463.0313,239.5781 Q461.6875,239.5781 461,240.6484 Q460.3125,241.7188 460.3125,243.8125 Q460.3125,245.9063 461,246.9766 Q461.6875,248.0469 463.0313,248.0469 Q463.6563,248.0469 464.25,247.7734 Q464.8438,247.5 465.4688,246.9219 L465.4688,249.6406 Z "/><text fill="#000000" font-family="sans-serif" font-size="12" lengthAdjust="spacingAndGlyphs" textLength="37" x="476.5" y="248.1543">YWing</text><line style="stroke: #A80036; stroke-width: 1.5;" x1="448.5" x2="515.5" y1="260" y2="260"/><line style="stroke: #A80036; stroke-width: 1.5;" x1="448.5" x2="515.5" y1="268" y2="268"/><!--link Fighter to TieBomber--><path d="M389.1672,187.0255 C383.154,201.9567 377.3278,216.4233 372.7055,227.9008 " fill="none" id="Fighter-TieBomber" style="stroke: #A80036; stroke-width: 1.0;"/><polygon fill="none" points="382.8428,183.9911,396.8076,168.0541,395.8292,189.2212,382.8428,183.9911" style="stroke: #A80036; stroke-width: 1.0;"/><!--link Fighter to TieFighter--><path d="M323.6494,180.4507 C314.6278,187.3829 305.6376,194.3123 297,201 C285.7719,209.6934 273.5072,219.2902 262.6868,227.7914 " fill="none" id="Fighter-TieFighter" style="stroke: #A80036; stroke-width: 1.0;"/><polygon fill="none" points="319.7234,174.6399,339.8529,168.0212,328.2444,185.7482,319.7234,174.6399" style="stroke: #A80036; stroke-width: 1.0;"/><!--link Fighter to TieInterceptor--><path d="M263.1489,159.0857 C231.0909,171.6002 198.0303,185.77 168,201 C152.7044,208.7572 136.7026,218.8343 123.2017,227.9802 " fill="none" id="Fighter-TieInterceptor" style="stroke: #A80036; stroke-width: 1.0;"/><polygon fill="none" points="260.6971,152.529,281.8778,151.9132,265.7041,165.603,260.6971,152.529" style="stroke: #A80036; stroke-width: 1.0;"/><!--link Fighter to AWing--><path d="M580.1319,167.6204 C600.1989,177.7371 619.99,188.9092 638,201 C649.2381,208.5446 660.2564,218.5851 669.3102,227.7612 " fill="none" id="Fighter-AWing" style="stroke: #A80036; stroke-width: 1.0;"/><polygon fill="none" points="576.9812,173.872,562.0684,158.8184,583.1138,161.2867,576.9812,173.872" style="stroke: #A80036; stroke-width: 1.0;"/><!--link Fighter to XWing--><path d="M512.2752,181.5242 C519.6809,188.0485 527.0029,194.5998 534,201 C543.3306,209.5345 553.3062,219.1834 561.9992,227.7738 " fill="none" id="Fighter-XWing" style="stroke: #A80036; stroke-width: 1.0;"/><polygon fill="none" points="507.5029,186.6503,497.0339,168.2274,516.7066,176.1007,507.5029,186.6503" style="stroke: #A80036; stroke-width: 1.0;"/><!--link Fighter to YWing--><path d="M455.3893,187.0255 C461.5045,201.9567 467.4293,216.4233 472.13,227.9008 " fill="none" id="Fighter-YWing" style="stroke: #A80036; stroke-width: 1.0;"/><polygon fill="none" points="448.7218,189.2151,447.6194,168.0541,461.6773,183.909,448.7218,189.2151" style="stroke: #A80036; stroke-width: 1.0;"/><!--
@startuml FighterSpec

package de.fhro.inf.prg3.a09.model {
    class Fighter {
        -pilot: String
        -fighterImage: Drawable
        +Fighter(pilot: String, fighterImage: Drawable)
        +{abstract} getFighterType(): String
        +getPilot(): String
        +getFighterImage(): Drawable
    }

    package empire {
        class TieBomber extends Fighter {

        }
        class TieFighter extends Fighter {

        }
        class TieInterceptor extends Fighter {

        }
    }

    package rebellion {
        class AWing extends Fighter {

        }
        class XWing extends Fighter {

        }
        class YWing extends Fighter {
            
        }
    }
}

@enduml

PlantUML version 1.2017.19(Sun Nov 12 12:46:22 CET 2017)
(GPL source distribution)
Java Runtime: OpenJDK Runtime Environment
JVM: OpenJDK 64-Bit Server VM
Java Version: 1.8.0_144-b01
Operating System: Linux
OS Version: 4.13.12-1-ARCH
Default Encoding: UTF-8
Language: en
Country: US
--></g></svg>